<svg xmlns="http://www.w3.org/2000/svg" width="279.176" height="193.656" viewBox="0 0 279.176 193.656">
  <g id="undraw_hey_email_liaa" transform="translate(0.017 -0.001)">
    <path id="Path_26" data-name="Path 26" d="M142.175,362.868c-3.735-1.009-8.28-5.2-7.307-10.971a8.644,8.644,0,0,1,4.256-5.909,17.887,17.887,0,0,1,8.6-2.438,51.024,51.024,0,0,1,10.061.762c3.3.479,6.591.907,9.9,1.169a127.636,127.636,0,0,0,38.645-2.869q4.687-1.082,9.318-2.538a64.02,64.02,0,0,0,8.559-3.2c3.67-1.762,9.64-5.191,9.153-11.542a12.433,12.433,0,0,0-4.241-7.93,35.149,35.149,0,0,0-7.958-5.2c-12.749-6.733-25.524-13.386-38.285-20.078-2.978-1.562-5.977-3.082-8.867-4.912a29.351,29.351,0,0,1-7.578-6.457,14.832,14.832,0,0,1-3.542-9.239,11.608,11.608,0,0,1,3.079-7.428c4.129-4.7,9.969-6.6,15.247-7.6,6.558-1.24,13.211-1.233,19.773-2.43,5.3-.966,10.96-2.832,15.269-7.2a13.656,13.656,0,0,0,3.722-6.5,12.782,12.782,0,0,0-.765-7.717,19.9,19.9,0,0,0-4.987-6.828,29.924,29.924,0,0,0-7.564-5.053c-5.82-2.773-11.94-4.217-17.9-6.346a39.085,39.085,0,0,1-8.592-3.981,15.4,15.4,0,0,1-6.085-6.611c-2.64-6.282,3.658-10.025,7.227-11.444a46.466,46.466,0,0,1,7.469-2.138c.538-.116.31-1.19-.226-1.075a44.687,44.687,0,0,0-7.844,2.29,15.16,15.16,0,0,0-6.063,4.091,8.517,8.517,0,0,0-1.924,6.659,12.3,12.3,0,0,0,4.222,7.019,26.975,26.975,0,0,0,7.968,4.861c2.943,1.247,5.949,2.219,8.953,3.173,6,1.905,12.277,3.6,17.7,7.657,3.791,2.836,8.942,8.153,7.681,14.744a12.692,12.692,0,0,1-4.094,6.9A23.84,23.84,0,0,1,207.815,251c-12.01,4.833-25.228,1.377-36.929,7.942-3.978,2.232-8.811,6.3-8.849,12.69a15.621,15.621,0,0,0,2.957,8.776,26.511,26.511,0,0,0,7.122,6.8,82.9,82.9,0,0,0,8.505,4.924q4.8,2.522,9.6,5.037l19.432,10.19,9.655,5.063a45.457,45.457,0,0,1,8.648,5.3c2.194,1.857,4.786,4.9,4.562,8.688-.178,3-2.174,5.173-4,6.623a28.2,28.2,0,0,1-7.655,4.1c-3.045,1.164-6.14,2.129-9.241,3a124.764,124.764,0,0,1-19.388,3.795,127.488,127.488,0,0,1-19.7.734q-4.983-.2-9.95-.8c-3.413-.411-6.812-1.045-10.234-1.326a27.041,27.041,0,0,0-9.269.622,13.456,13.456,0,0,0-7.167,4.27,9.447,9.447,0,0,0-2.005,6.38,11.457,11.457,0,0,0,2.349,6.323,10.628,10.628,0,0,0,5.682,3.814c.534.144.762-.93.226-1.075Z" transform="translate(-133.919 -170.439)" fill="#e6e6e6"/>
    <rect id="Rectangle_10" data-name="Rectangle 10" width="97.044" height="0.671" transform="translate(7.215 192.938)" fill="#3f3d56"/>
    <circle id="Ellipse_11" data-name="Ellipse 11" cx="6.34" cy="6.34" r="6.34" transform="translate(90.443 148.647)" fill="#e6e6e6"/>
    <circle id="Ellipse_12" data-name="Ellipse 12" cx="6.34" cy="6.34" r="6.34" transform="translate(24.67 91.338)" fill="#e6e6e6"/>
    <path id="Path_27" data-name="Path 27" d="M237.206,680.211s-5.48,7.425-6.717,8.662-1.591,5.834-1.591,5.834l2.121,4.95-1.237,2.475-9.546-9.546,10.253-15.2Z" transform="translate(-194.396 -512.456)" fill="#ffb8b8"/>
    <path id="Path_28" data-name="Path 28" d="M266.458,519.832s-19.835,60.441-21.957,61.855-12.568-7.462-15.573-9.584,22.681-42.477,22.681-42.477c-4.066-13.258-2.122-16.335-2.122-16.335Z" transform="translate(-200.314 -397.508)" fill="#2f2e41"/>
    <path id="Path_29" data-name="Path 29" d="M222.892,729.868a7.43,7.43,0,0,1,.683-3.18c.683-1.059,1.969,3.71,1.969,3.71s7.778,2.121,4.243,4.419-13.965-4.95-16.97-6.894-1.945-4.243-.354-5.834L215.556,719Z" transform="translate(-187.861 -541.606)" fill="#2f2e41"/>
    <path id="Path_30" data-name="Path 30" d="M358.7,699.813s1.591,4.6,3.005,9.016,8.132,6.718,8.132,6.718l1.237,3.182-3.712,1.768-10.783-2.652s.354-3.535.354-4.773-5.657-11.667-5.657-11.667Z" transform="translate(-286.189 -528.168)" fill="#ffb8b8"/>
    <circle id="Ellipse_13" data-name="Ellipse 13" cx="7.425" cy="7.425" r="7.425" transform="translate(51.118 54.619)" fill="#ffb8b8"/>
    <path id="Path_31" data-name="Path 31" d="M303.453,346.839c0,1.061-5.3,9.192-5.3,9.192l7.769,3.467,3.545-10.185Z" transform="translate(-248.976 -280.906)" fill="#ffb8b8"/>
    <path id="Path_32" data-name="Path 32" d="M308.1,476.105a5.573,5.573,0,0,1,5.6,5.432l.234,9.24,1.237,2.121s7.614,56.779,7.614,58.546-7.56,6.643-11.979,6.289c-2.186-.175-7.088-20.26-9.033-31.257-1.385-7.828-2.736-16.348-4.093-22.637a55.891,55.891,0,0,0-1.777-6.7c-3.889-10.783,2.828-21.036,2.828-21.036H308.1Z" transform="translate(-246.556 -371.459)" fill="#2f2e41"/>
    <path id="Path_33" data-name="Path 33" d="M378.048,748.736s.972.265-.088-.088-.707-2.3-.663-3.286,10.386,2.226,10.386,4.7-13.258,2.475-17.147,2.121-4.773,0-5.3-2.475,1.5-5.922,1.5-5.922Z" transform="translate(-295.906 -558.973)" fill="#2f2e41"/>
    <path id="Path_34" data-name="Path 34" d="M294.209,400.563c1.382,0,4.356-3.551,5.912-1.995,1.132,1.132,2.092,2.219,2.939,3.178,2.432,2.753,4.558,5.277,6.036,3.466.223-.274-.528.358.1-.068a1.515,1.515,0,0,0,.611-1.644c-2.144-6.717-3.479-13.151-1.774-18.526a4.359,4.359,0,0,0,.179-1.315q0-.1.009-.2c.09-.992.068-4.544-4-8.614-3.72-3.72-4.434-6.006-4.528-7.037-.022-.24-6.019-6.462-6.019-6.462a1.508,1.508,0,0,0-1.805.507l-1.921,2.641a25.261,25.261,0,0,0-2.634,13.379c.52,5.993,1.423,17.844,2.164,22.119a1.562,1.562,0,0,0,.578.985,1.489,1.489,0,0,0,1.524.18,6.42,6.42,0,0,1,2.632-.6Z" transform="translate(-241.328 -290.99)" fill="#545dbb"/>
    <path id="Path_35" data-name="Path 35" d="M301.017,309.671l-1.333-1.409c.111,7.417,7.108,11.555,7.108,11.555l-15.623-1.558-.395-1.967-.816,1.62-1.907-.483-.549-1.2-1.177.641,2.415-9.537c2.385-9.1,9.659-7.764,9.659-7.764,10.185-3.185,8.936,6.529,8.936,6.529Z" transform="translate(-240.692 -247.344)" fill="#2f2e41"/>
    <path id="Path_36" data-name="Path 36" d="M174.967,467.026l-2.833-25.06,3.484,23.214Z" transform="translate(-120.593 -309.602)" opacity="0.2"/>
    <circle id="Ellipse_14" data-name="Ellipse 14" cx="3.929" cy="3.929" r="3.929" transform="translate(45.402 48.392)" fill="#2f2e41"/>
    <path id="Path_37" data-name="Path 37" d="M299.583,293.647c.082,0,.163,0,.246,0h.008a3.929,3.929,0,0,0-.512-7.84c-.083.005-.163.018-.244.028a3.924,3.924,0,0,1,.5,7.816Z" transform="translate(-249.628 -238.144)" fill="#2f2e41"/>
    <ellipse id="Ellipse_15" data-name="Ellipse 15" cx="1.228" cy="1.719" rx="1.228" ry="1.719" transform="translate(57.924 60.914)" fill="#ffb8b8"/>
    <path id="Path_38" data-name="Path 38" d="M349.591,490.985l5.047,3.572a3.564,3.564,0,0,1,.295,5.586h0a3.564,3.564,0,0,1-5.385-.8l-2.92-4.722L336.35,479.087l4.259-3.133Z" transform="translate(-275.736 -371.353)" fill="#feb8b8"/>
    <path id="Path_39" data-name="Path 39" d="M315.031,420.228c.02,2.753-2.7,5.143-6.542,5.488l-8.814-18.728a11.445,11.445,0,0,1,1.539-12.172h0l8.9,10.813C310.388,410.331,312.393,415.2,315.031,420.228Z" transform="translate(-249.281 -314.515)" opacity="0.2"/>
    <path id="Path_40" data-name="Path 40" d="M317.833,414.827c.02,2.753-1.5,4.544-5.345,4.89l-8.814-18.728a11.444,11.444,0,0,1,1.539-12.172h0l8.9,10.813A37.173,37.173,0,0,0,317.833,414.827Z" transform="translate(-252.083 -310.312)" fill="#545dbb"/>
    <path id="Path_1" data-name="Path 1" d="M826.4,356.485h-9.557a3.858,3.858,0,0,0-3.4,2.406l-2.167,6.241-1.734,4.833-2.427,7a12.354,12.354,0,0,1-1.019,2.406,11.464,11.464,0,0,1-1.04-2.427l-2.319-6.957c-.455-1.344-1.214-3.511-1.69-4.854l-2.167-6.241a3.858,3.858,0,0,0-3.424-2.406H758.7a2.557,2.557,0,0,0-2.557,2.557h0v14.585a2.579,2.579,0,0,1-2.579,2.579H742.9a2.6,2.6,0,0,1-2.579-2.579V359.043a2.557,2.557,0,0,0-2.449-2.557h-8.885a2.579,2.579,0,0,0-2.579,2.557v6.74c4.724,6.025,4.724,16.991,0,33.331v7.78a2.579,2.579,0,0,0,2.579,2.557h8.885a2.557,2.557,0,0,0,2.557-2.557h0V390.987a2.579,2.579,0,0,1,2.471-2.579h10.663a2.557,2.557,0,0,1,2.579,2.535v15.929a2.557,2.557,0,0,0,2.557,2.557h29.972a2.557,2.557,0,0,0,2.557-2.557v-6.588a2.557,2.557,0,0,0-2.557-2.557H772.765a2.579,2.579,0,0,1-2.557-2.579v-4.334a2.579,2.579,0,0,1,2.557-2.579h9.6a2.557,2.557,0,0,0,2.557-2.557h0v-6.588a2.557,2.557,0,0,0-2.557-2.557h-9.6a2.579,2.579,0,0,1-2.557-2.579v-3.164a2.557,2.557,0,0,1,2.535-2.579h13.025a4.334,4.334,0,0,1,3.619,2.341l8.43,18.313a13.631,13.631,0,0,1,1.084,4.9v13.133a2.557,2.557,0,0,0,2.557,2.557h8.885a2.557,2.557,0,0,0,2.579-2.535V393.761a14.088,14.088,0,0,1,1.062-4.9L827.9,358.8a1.517,1.517,0,0,0-1.5-2.319Z" transform="translate(-548.977 -287.652)" fill="#fff"/>
    <path id="Path_2" data-name="Path 2" d="M538.08,333.723a19.331,19.331,0,0,0-8.929,5.31c-2.839-9.969-8.95-25.052-14.91-27.523a4.334,4.334,0,0,0-3.988.173c-3.728,2.167-6.155,9.145-4.031,22.365-8.192-15-11.053-14.975-12.375-15a3.229,3.229,0,0,0-2.947,2.015c-.889,1.972-2.666,8.127,1.669,21.368-5.223-7.152-6.827-8.062-8.669-7.975a3.273,3.273,0,0,0-2.774,1.885c-1.56,2.947-1.387,10.359,3.467,21.412a9.947,9.947,0,0,0-5.981-2.471,3.576,3.576,0,0,0-2.882,1.842c-1.972,3.619,2.167,13.783,7.282,20.675,4.139,5.656,12.439,14.347,24.489,14.347a27.179,27.179,0,0,0,5.028-.477,2.208,2.208,0,0,0-.767-4.35l-.078.015c-10.012,1.95-17.554-3.554-22.127-8.5-6.827-7.39-9.817-16.275-9.991-18.984,1.43.585,5.548,3.012,13.566,13.285a2.2,2.2,0,1,0,3.576-2.557h0c-11.269-17.1-12.375-27.458-12.006-30.947,3.316,3.381,11.594,15.777,17.836,25.139a2.2,2.2,0,0,0,3.771-2.276c-13-23.839-12.548-34.675-11.789-38.315,1.95,1.972,7.13,8.842,18.031,32.507a2.208,2.208,0,0,0,4.074-1.69c-10.576-28.715-5.981-38.446-4.226-39.551,2.276,0,8.669,10.966,12.656,25.334.238.889.477,1.755.693,2.6a13.827,13.827,0,0,0-1.3,3.121c-2.167,7.953-4.334,26.006-.152,30.969a4.031,4.031,0,0,0,3.511,1.5,5.7,5.7,0,0,0,4.161-2.557c3.879-5.656,1.6-19.851-1.5-32.269a16.318,16.318,0,0,1,8.669-6.22,4.334,4.334,0,0,1,4.334,1.04c1.777,1.994,4.876,9.449-4.529,35.736a2.207,2.207,0,1,0,4.161,1.474c7.5-20.956,8.669-34.458,3.662-40.136A8.539,8.539,0,0,0,538.08,333.723Zm-9.752,40.244a1.387,1.387,0,0,1-.737.628c-1.625-1.929-1.625-13.35.152-22.712C531.1,368.072,529.152,372.819,528.328,373.967Z" transform="translate(-373.023 -255.875)" fill="#fff"/>
    <path id="Path_41" data-name="Path 41" d="M324.968,126.954l-17.6,7.652a3.2,3.2,0,0,0-1.658,4.209l5.466,12.574a3.2,3.2,0,0,0,4.209,1.658l17.6-7.652a3.2,3.2,0,0,0,1.658-4.209l-5.466-12.574a3.2,3.2,0,0,0-4.209-1.658Zm.729,1.676a1.365,1.365,0,0,1,.329-.095l-5.951,11.228-12.223-3.345a1.373,1.373,0,0,1,.243-.136Zm6.559,15.088-17.6,7.653a1.373,1.373,0,0,1-1.8-.711L307.432,138.2l12.866,3.521a.914.914,0,0,0,1.049-.454l6.229-11.753,5.391,12.4a1.373,1.373,0,0,1-.711,1.8Z" transform="translate(-254.084 -126.689)" fill="#e6e6e6"/>
  </g>
</svg>
